<mxfile host="app.diagrams.net" modified="2020-09-14T19:05:39.033Z" agent="5.0 (Windows)" etag="0KqJX3_R_NZelPwgwkau" version="13.7.0" type="github">
  <diagram id="r91oMJaey2TWPdNSBlBG" name="Page-1">
    <mxGraphModel dx="2249" dy="791" grid="1" gridSize="10" guides="1" tooltips="1" connect="1" arrows="1" fold="1" page="1" pageScale="1" pageWidth="827" pageHeight="1169" math="0" shadow="0">
      <root>
        <mxCell id="0" />
        <mxCell id="1" parent="0" />
        <mxCell id="XVfHI6oBJg1WPug2uZXQ-13" style="edgeStyle=orthogonalEdgeStyle;curved=1;jumpSize=8;orthogonalLoop=1;jettySize=auto;html=1;entryX=1;entryY=0.5;entryDx=0;entryDy=0;startArrow=block;startFill=1;endArrow=block;endFill=1;" parent="1" source="XVfHI6oBJg1WPug2uZXQ-1" target="XVfHI6oBJg1WPug2uZXQ-3" edge="1">
          <mxGeometry relative="1" as="geometry" />
        </mxCell>
        <mxCell id="XVfHI6oBJg1WPug2uZXQ-19" style="edgeStyle=orthogonalEdgeStyle;curved=1;jumpSize=8;orthogonalLoop=1;jettySize=auto;html=1;exitX=0;exitY=1;exitDx=0;exitDy=0;entryX=0.5;entryY=0;entryDx=0;entryDy=0;startArrow=none;startFill=0;endArrow=block;endFill=1;" parent="1" source="XVfHI6oBJg1WPug2uZXQ-3" target="XVfHI6oBJg1WPug2uZXQ-5" edge="1">
          <mxGeometry relative="1" as="geometry" />
        </mxCell>
        <mxCell id="XVfHI6oBJg1WPug2uZXQ-27" style="edgeStyle=orthogonalEdgeStyle;curved=1;jumpSize=8;orthogonalLoop=1;jettySize=auto;html=1;exitX=0;exitY=0.75;exitDx=0;exitDy=0;entryX=1;entryY=0.75;entryDx=0;entryDy=0;startArrow=none;startFill=0;endArrow=block;endFill=1;strokeColor=#00CC00;" parent="1" source="XVfHI6oBJg1WPug2uZXQ-1" target="XVfHI6oBJg1WPug2uZXQ-3" edge="1">
          <mxGeometry relative="1" as="geometry" />
        </mxCell>
        <mxCell id="XVfHI6oBJg1WPug2uZXQ-1" value="Login screen" style="rounded=1;whiteSpace=wrap;html=1;" parent="1" vertex="1">
          <mxGeometry x="520" y="280" width="120" height="60" as="geometry" />
        </mxCell>
        <mxCell id="XVfHI6oBJg1WPug2uZXQ-8" style="edgeStyle=orthogonalEdgeStyle;rounded=0;orthogonalLoop=1;jettySize=auto;html=1;startArrow=block;startFill=1;endArrow=oval;endFill=1;jumpSize=8;" parent="1" source="XVfHI6oBJg1WPug2uZXQ-3" edge="1">
          <mxGeometry relative="1" as="geometry">
            <mxPoint x="50" y="310" as="targetPoint" />
          </mxGeometry>
        </mxCell>
        <mxCell id="XVfHI6oBJg1WPug2uZXQ-16" style="edgeStyle=orthogonalEdgeStyle;curved=1;jumpSize=8;orthogonalLoop=1;jettySize=auto;html=1;entryX=0.5;entryY=1;entryDx=0;entryDy=0;startArrow=none;startFill=0;endArrow=block;endFill=1;strokeColor=#00CC00;" parent="1" source="XVfHI6oBJg1WPug2uZXQ-3" target="XVfHI6oBJg1WPug2uZXQ-3" edge="1">
          <mxGeometry relative="1" as="geometry">
            <mxPoint x="220" y="460" as="targetPoint" />
            <Array as="points">
              <mxPoint x="170" y="390" />
              <mxPoint x="207" y="390" />
            </Array>
          </mxGeometry>
        </mxCell>
        <mxCell id="XVfHI6oBJg1WPug2uZXQ-40" style="edgeStyle=orthogonalEdgeStyle;curved=1;jumpSize=8;orthogonalLoop=1;jettySize=auto;html=1;entryX=0.432;entryY=0.995;entryDx=0;entryDy=0;entryPerimeter=0;startArrow=none;startFill=0;endArrow=block;endFill=1;strokeColor=#000000;" parent="1" source="XVfHI6oBJg1WPug2uZXQ-3" target="XVfHI6oBJg1WPug2uZXQ-33" edge="1">
          <mxGeometry relative="1" as="geometry" />
        </mxCell>
        <mxCell id="XVfHI6oBJg1WPug2uZXQ-3" value="Polls screen" style="rounded=1;whiteSpace=wrap;html=1;" parent="1" vertex="1">
          <mxGeometry x="120" y="280" width="174" height="60" as="geometry" />
        </mxCell>
        <mxCell id="XVfHI6oBJg1WPug2uZXQ-51" style="edgeStyle=orthogonalEdgeStyle;curved=1;jumpSize=8;orthogonalLoop=1;jettySize=auto;html=1;exitX=1;exitY=0.5;exitDx=0;exitDy=0;startArrow=none;startFill=0;endArrow=block;endFill=1;" parent="1" source="XVfHI6oBJg1WPug2uZXQ-5" target="XVfHI6oBJg1WPug2uZXQ-50" edge="1">
          <mxGeometry relative="1" as="geometry" />
        </mxCell>
        <mxCell id="XVfHI6oBJg1WPug2uZXQ-5" value="&lt;div&gt;Users screen&lt;/div&gt;" style="rounded=1;whiteSpace=wrap;html=1;" parent="1" vertex="1">
          <mxGeometry x="60" y="460" width="120" height="60" as="geometry" />
        </mxCell>
        <mxCell id="XVfHI6oBJg1WPug2uZXQ-11" style="edgeStyle=orthogonalEdgeStyle;jumpSize=8;orthogonalLoop=1;jettySize=auto;html=1;exitX=0.75;exitY=0;exitDx=0;exitDy=0;startArrow=block;startFill=1;endArrow=none;endFill=0;curved=1;entryX=0.25;entryY=0;entryDx=0;entryDy=0;strokeColor=#FF3333;" parent="1" edge="1">
          <mxGeometry relative="1" as="geometry">
            <mxPoint x="552" y="280" as="targetPoint" />
            <mxPoint x="612" y="280" as="sourcePoint" />
            <Array as="points">
              <mxPoint x="612" y="250" />
              <mxPoint x="548" y="250" />
              <mxPoint x="548" y="280" />
            </Array>
          </mxGeometry>
        </mxCell>
        <mxCell id="XVfHI6oBJg1WPug2uZXQ-12" value="&lt;font color=&quot;#FF3333&quot;&gt;Login [Failure]&lt;/font&gt;" style="text;html=1;align=center;verticalAlign=middle;resizable=0;points=[];autosize=1;" parent="1" vertex="1">
          <mxGeometry x="535" y="220" width="90" height="20" as="geometry" />
        </mxCell>
        <mxCell id="XVfHI6oBJg1WPug2uZXQ-15" value="&lt;div&gt;Navigation&lt;/div&gt;" style="text;html=1;align=center;verticalAlign=middle;resizable=0;points=[];autosize=1;" parent="1" vertex="1">
          <mxGeometry x="370" y="280" width="70" height="20" as="geometry" />
        </mxCell>
        <mxCell id="XVfHI6oBJg1WPug2uZXQ-17" value="&lt;font color=&quot;#00CC00&quot;&gt;Join poll&lt;br&gt;[Success]&lt;br&gt;&lt;/font&gt;" style="text;html=1;align=center;verticalAlign=middle;resizable=0;points=[];autosize=1;" parent="1" vertex="1">
          <mxGeometry x="155" y="390" width="70" height="30" as="geometry" />
        </mxCell>
        <mxCell id="XVfHI6oBJg1WPug2uZXQ-20" value="Navigation [Logged in&lt;br&gt;&amp;amp;&amp;amp; Admin]" style="text;html=1;align=center;verticalAlign=middle;resizable=0;points=[];autosize=1;" parent="1" vertex="1">
          <mxGeometry x="-10" y="370" width="130" height="30" as="geometry" />
        </mxCell>
        <mxCell id="XVfHI6oBJg1WPug2uZXQ-22" style="edgeStyle=orthogonalEdgeStyle;curved=1;jumpSize=8;orthogonalLoop=1;jettySize=auto;html=1;entryX=0.631;entryY=1.019;entryDx=0;entryDy=0;startArrow=none;startFill=0;endArrow=block;endFill=1;strokeColor=#FF3333;entryPerimeter=0;" parent="1" target="XVfHI6oBJg1WPug2uZXQ-3" edge="1">
          <mxGeometry relative="1" as="geometry">
            <mxPoint x="280" y="341" as="sourcePoint" />
            <mxPoint x="220" y="460" as="targetPoint" />
            <Array as="points">
              <mxPoint x="280" y="360" />
              <mxPoint x="230" y="360" />
            </Array>
          </mxGeometry>
        </mxCell>
        <mxCell id="XVfHI6oBJg1WPug2uZXQ-23" value="&lt;font color=&quot;#FF3333&quot;&gt;Join poll &lt;br&gt;[Failure]&lt;br&gt;&lt;/font&gt;" style="text;html=1;align=center;verticalAlign=middle;resizable=0;points=[];autosize=1;" parent="1" vertex="1">
          <mxGeometry x="225" y="360" width="60" height="30" as="geometry" />
        </mxCell>
        <mxCell id="XVfHI6oBJg1WPug2uZXQ-28" value="&lt;div&gt;&lt;font color=&quot;#00CC00&quot;&gt;Logged in [Success]&lt;/font&gt;&lt;/div&gt;" style="text;html=1;align=center;verticalAlign=middle;resizable=0;points=[];autosize=1;" parent="1" vertex="1">
          <mxGeometry x="340" y="330" width="130" height="20" as="geometry" />
        </mxCell>
        <mxCell id="XVfHI6oBJg1WPug2uZXQ-41" style="edgeStyle=orthogonalEdgeStyle;curved=1;jumpSize=8;orthogonalLoop=1;jettySize=auto;html=1;exitX=0.75;exitY=1;exitDx=0;exitDy=0;entryX=0.719;entryY=0;entryDx=0;entryDy=0;entryPerimeter=0;startArrow=none;startFill=0;endArrow=block;endFill=1;strokeColor=#00CC00;" parent="1" source="XVfHI6oBJg1WPug2uZXQ-33" target="XVfHI6oBJg1WPug2uZXQ-3" edge="1">
          <mxGeometry relative="1" as="geometry" />
        </mxCell>
        <mxCell id="XVfHI6oBJg1WPug2uZXQ-33" value="My polls screen" style="rounded=1;whiteSpace=wrap;html=1;" parent="1" vertex="1">
          <mxGeometry x="155" y="130" width="120" height="60" as="geometry" />
        </mxCell>
        <mxCell id="XVfHI6oBJg1WPug2uZXQ-39" value="Navigation &lt;br&gt;[Logged in]" style="text;html=1;align=center;verticalAlign=middle;resizable=0;points=[];autosize=1;" parent="1" vertex="1">
          <mxGeometry x="130" y="215" width="80" height="30" as="geometry" />
        </mxCell>
        <mxCell id="XVfHI6oBJg1WPug2uZXQ-42" style="edgeStyle=orthogonalEdgeStyle;curved=1;jumpSize=8;orthogonalLoop=1;jettySize=auto;html=1;exitX=0.75;exitY=0;exitDx=0;exitDy=0;entryX=0.292;entryY=0;entryDx=0;entryDy=0;entryPerimeter=0;startArrow=none;startFill=0;endArrow=block;endFill=1;strokeColor=#FF3333;" parent="1" source="XVfHI6oBJg1WPug2uZXQ-33" target="XVfHI6oBJg1WPug2uZXQ-33" edge="1">
          <mxGeometry relative="1" as="geometry">
            <Array as="points">
              <mxPoint x="245" y="110" />
              <mxPoint x="190" y="110" />
            </Array>
          </mxGeometry>
        </mxCell>
        <mxCell id="XVfHI6oBJg1WPug2uZXQ-43" value="&lt;font color=&quot;#FF3333&quot;&gt;Create poll [Failure]&lt;br&gt;&lt;/font&gt;" style="text;html=1;align=center;verticalAlign=middle;resizable=0;points=[];autosize=1;" parent="1" vertex="1">
          <mxGeometry x="155" y="90" width="120" height="20" as="geometry" />
        </mxCell>
        <mxCell id="XVfHI6oBJg1WPug2uZXQ-44" value="&lt;font color=&quot;#00CC00&quot;&gt;Create poll [Logged in &lt;br&gt;&amp;amp;&amp;amp; Success]&lt;br&gt;&lt;/font&gt;" style="text;html=1;align=center;verticalAlign=middle;resizable=0;points=[];autosize=1;" parent="1" vertex="1">
          <mxGeometry x="240" y="210" width="140" height="30" as="geometry" />
        </mxCell>
        <mxCell id="XVfHI6oBJg1WPug2uZXQ-50" value="Manage user screen" style="rounded=1;whiteSpace=wrap;html=1;" parent="1" vertex="1">
          <mxGeometry x="325" y="460" width="120" height="60" as="geometry" />
        </mxCell>
        <mxCell id="XVfHI6oBJg1WPug2uZXQ-52" value="Navigation [Logged in&lt;br&gt;&amp;amp;&amp;amp; Admin]" style="text;html=1;align=center;verticalAlign=middle;resizable=0;points=[];autosize=1;" parent="1" vertex="1">
          <mxGeometry x="190" y="500" width="130" height="30" as="geometry" />
        </mxCell>
        <mxCell id="XVfHI6oBJg1WPug2uZXQ-53" style="edgeStyle=orthogonalEdgeStyle;curved=1;jumpSize=8;orthogonalLoop=1;jettySize=auto;html=1;exitX=1;exitY=0.25;exitDx=0;exitDy=0;entryX=1;entryY=0.75;entryDx=0;entryDy=0;startArrow=none;startFill=0;endArrow=block;endFill=1;strokeColor=#FF3333;" parent="1" source="XVfHI6oBJg1WPug2uZXQ-50" target="XVfHI6oBJg1WPug2uZXQ-50" edge="1">
          <mxGeometry relative="1" as="geometry">
            <Array as="points">
              <mxPoint x="465" y="475" />
              <mxPoint x="465" y="510" />
              <mxPoint x="445" y="510" />
            </Array>
          </mxGeometry>
        </mxCell>
        <mxCell id="XVfHI6oBJg1WPug2uZXQ-54" value="&lt;font color=&quot;#FF3333&quot;&gt;Manage user &lt;br&gt;[Failure]&lt;/font&gt;" style="text;html=1;align=center;verticalAlign=middle;resizable=0;points=[];autosize=1;" parent="1" vertex="1">
          <mxGeometry x="464" y="475" width="90" height="30" as="geometry" />
        </mxCell>
        <mxCell id="XVfHI6oBJg1WPug2uZXQ-55" value="&lt;font color=&quot;#00CC00&quot;&gt;Manage user [Logged in &lt;br&gt;&amp;amp;&amp;amp; Admin &amp;amp;&amp;amp; Success]&lt;br&gt;&lt;/font&gt;" style="text;html=1;align=center;verticalAlign=middle;resizable=0;points=[];autosize=1;" parent="1" vertex="1">
          <mxGeometry x="310" y="550" width="150" height="30" as="geometry" />
        </mxCell>
        <mxCell id="XVfHI6oBJg1WPug2uZXQ-57" style="edgeStyle=orthogonalEdgeStyle;curved=1;jumpSize=8;orthogonalLoop=1;jettySize=auto;html=1;exitX=0.75;exitY=1;exitDx=0;exitDy=0;entryX=0.25;entryY=1;entryDx=0;entryDy=0;startArrow=none;startFill=0;endArrow=block;endFill=1;strokeColor=#00CC00;" parent="1" source="XVfHI6oBJg1WPug2uZXQ-50" target="XVfHI6oBJg1WPug2uZXQ-50" edge="1">
          <mxGeometry relative="1" as="geometry" />
        </mxCell>
      </root>
    </mxGraphModel>
  </diagram>
</mxfile>
